<?xml version="1.0" encoding="UTF-8" standalone="no"?>
<!-- Created with Vectornator (http://vectornator.io/) -->

<svg
   height="1564.7676"
   stroke-miterlimit="10"
   style="clip-rule:evenodd;fill-rule:nonzero;stroke-linecap:round;stroke-linejoin:round"
   version="1.1"
   viewBox="0 0 1564.7676 1564.7676"
   width="1564.7676"
   xml:space="preserve"
   id="svg100"
   sodipodi:docname="Logo.svg"
   inkscape:version="1.1.1 (3bf5ae0d25, 2021-09-20)"
   inkscape:export-filename="P:\Rappd\assets\Logo_16x16.png"
   inkscape:export-xdpi="0.98161542"
   inkscape:export-ydpi="0.98161542"
   xmlns:inkscape="http://www.inkscape.org/namespaces/inkscape"
   xmlns:sodipodi="http://sodipodi.sourceforge.net/DTD/sodipodi-0.dtd"
   xmlns:xlink="http://www.w3.org/1999/xlink"
   xmlns="http://www.w3.org/2000/svg"
   xmlns:svg="http://www.w3.org/2000/svg"><sodipodi:namedview
   id="namedview102"
   pagecolor="#ffffff"
   bordercolor="#999999"
   borderopacity="1"
   inkscape:pageshadow="0"
   inkscape:pageopacity="0"
   inkscape:pagecheckerboard="0"
   showgrid="false"
   inkscape:zoom="0.32153204"
   inkscape:cx="831.95441"
   inkscape:cy="779.08254"
   inkscape:window-width="1920"
   inkscape:window-height="1009"
   inkscape:window-x="3832"
   inkscape:window-y="-8"
   inkscape:window-maximized="1"
   inkscape:current-layer="g97" />
<defs
   id="defs79">
<linearGradient
   gradientTransform="matrix(1.79627,0,0,1.79627,-961.895,167.588)"
   gradientUnits="userSpaceOnUse"
   id="LinearGradient"
   x1="628.5"
   x2="1251.72"
   y1="508.797"
   y2="508.797"
   xlink:href="#LinearGradient_2">
<stop
   offset="0"
   stop-color="#944591"
   id="stop2" />
<stop
   offset="0"
   stop-color="#944591"
   id="stop4" />
<stop
   offset="1"
   stop-color="#6a287e"
   id="stop6" />
<stop
   offset="1"
   stop-color="#7d0303"
   stop-opacity="0"
   id="stop8" />
<stop
   offset="1"
   stop-color="#64247b"
   id="stop10" />
</linearGradient>
<linearGradient
   gradientTransform="matrix(1.79627,0,0,1.79627,-961.895,167.588)"
   gradientUnits="userSpaceOnUse"
   id="LinearGradient_2"
   x1="561.21899"
   x2="1263.03"
   y1="508.60901"
   y2="508.60901">
<stop
   offset="0"
   stop-color="#944591"
   id="stop13"
   style="stop-color:#68217a;stop-opacity:1" />



<stop
   offset="1"
   stop-color="#64247b"
   id="stop21"
   style="stop-color:#953dac;stop-opacity:1" />
</linearGradient>
<linearGradient
   gradientTransform="matrix(0.844259,0,0,0.844259,823.932,167.268)"
   gradientUnits="userSpaceOnUse"
   id="LinearGradient_3"
   x1="906.245"
   x2="1571.73"
   y1="1080"
   y2="1080">
<stop
   offset="0"
   stop-color="#944591"
   id="stop24" />
<stop
   offset="0"
   stop-color="#944591"
   id="stop26" />
<stop
   offset="1"
   stop-color="#6a287e"
   id="stop28" />
<stop
   offset="1"
   stop-color="#7d0303"
   stop-opacity="0"
   id="stop30" />
<stop
   offset="1"
   stop-color="#64247b"
   id="stop32" />
</linearGradient>
<linearGradient
   gradientTransform="matrix(0.844259,0,0,0.844259,812.406,169.138)"
   gradientUnits="userSpaceOnUse"
   id="LinearGradient_4"
   x1="323.125"
   x2="945.875"
   y1="1077.27"
   y2="1077.27">
<stop
   offset="0"
   stop-color="#944591"
   id="stop35" />
<stop
   offset="0"
   stop-color="#944591"
   id="stop37" />
<stop
   offset="1"
   stop-color="#64247b"
   id="stop39" />
<stop
   offset="1"
   stop-color="#6a287e"
   id="stop41" />
<stop
   offset="1"
   stop-color="#7d0303"
   stop-opacity="0"
   id="stop43" />
</linearGradient>
<linearGradient
   gradientTransform="matrix(0.844259,0,0,0.844259,823.932,167.267)"
   gradientUnits="userSpaceOnUse"
   id="LinearGradient_5"
   x1="1608.41"
   x2="2231.8799"
   y1="1080"
   y2="1080">
<stop
   offset="0"
   stop-color="#944591"
   id="stop46" />
<stop
   offset="0"
   stop-color="#944591"
   id="stop48" />
<stop
   offset="1"
   stop-color="#64247b"
   id="stop50" />
<stop
   offset="1"
   stop-color="#6a287e"
   id="stop52" />
<stop
   offset="1"
   stop-color="#7d0303"
   stop-opacity="0"
   id="stop54" />
</linearGradient>
<linearGradient
   gradientTransform="matrix(0.844259,0,0,0.844259,823.932,167.267)"
   gradientUnits="userSpaceOnUse"
   id="LinearGradient_6"
   x1="2252"
   x2="2874.75"
   y1="1080"
   y2="1080">
<stop
   offset="0"
   stop-color="#944591"
   id="stop57" />
<stop
   offset="0"
   stop-color="#944591"
   id="stop59" />
<stop
   offset="1"
   stop-color="#64247b"
   id="stop61" />
<stop
   offset="1"
   stop-color="#6a287e"
   id="stop63" />
<stop
   offset="1"
   stop-color="#7d0303"
   stop-opacity="0"
   id="stop65" />
</linearGradient>
<linearGradient
   gradientTransform="matrix(0.844259,0,0,0.844259,823.932,167.267)"
   gradientUnits="userSpaceOnUse"
   id="LinearGradient_7"
   x1="2894.9099"
   x2="3517.72"
   y1="1080"
   y2="1080">
<stop
   offset="0"
   stop-color="#944591"
   id="stop68" />
<stop
   offset="0"
   stop-color="#944591"
   id="stop70" />
<stop
   offset="1"
   stop-color="#64247b"
   id="stop72" />
<stop
   offset="1"
   stop-color="#6a287e"
   id="stop74" />
<stop
   offset="1"
   stop-color="#7d0303"
   stop-opacity="0"
   id="stop76" />
</linearGradient>
<linearGradient
   inkscape:collect="always"
   xlink:href="#LinearGradient_2"
   id="linearGradient1582"
   x1="167.05792"
   y1="1081.525"
   x2="1286.53"
   y2="1081.525"
   gradientUnits="userSpaceOnUse"
   gradientTransform="translate(0,333.22988)" /><linearGradient
   inkscape:collect="always"
   xlink:href="#LinearGradient_2"
   id="linearGradient873"
   gradientUnits="userSpaceOnUse"
   gradientTransform="matrix(1.79627,0,0,1.79627,-961.895,501.1573)"
   x1="561.21899"
   y1="508.60901"
   x2="1263.03"
   y2="508.60901" /></defs>
<g
   id="Ebene-3"
   transform="translate(-46.203047,-632.37109)">
<g
   opacity="1"
   id="g97">
<path
   d="m 581.94,1171.0499 -156.725,0.168 c -49.506,0.065 -89.597,40.251 -89.532,89.757 0.064,49.507 40.251,89.595 89.757,89.535 l 156.724,-0.23 c 49.506,-0.06 89.598,-40.247 89.533,-89.754 -0.065,-49.506 -40.251,-89.541 -89.757,-89.476 z m 704.59,0.393 -474.332,0.617 c -49.506,0.065 -89.597,40.252 -89.532,89.757 0.065,49.507 40.251,89.593 89.757,89.533 l 442.607,-0.56 z m -1030.557,306.937 c -49.173,0.06 -88.979,39.97 -88.915,89.14 v 1.18 c 0.065,49.17 39.966,88.98 89.14,88.91 49.174,-0.06 88.979,-39.96 88.915,-89.14 v -1.17 c -0.064,-49.18 -39.966,-88.98 -89.14,-88.92 z m 429.645,0 -199.666,0.22 c -49.506,0.07 -89.598,40.26 -89.533,89.76 0.065,49.51 40.251,89.6 89.757,89.53 l 199.723,-0.28 c 49.506,-0.06 89.541,-40.25 89.476,-89.75 -0.065,-49.51 -40.251,-89.54 -89.757,-89.48 z m 546.902,0.39 -316.643,0.45 c -49.378,0.07 -89.373,40.2 -89.308,89.7 0.064,49.51 40.155,89.6 89.532,89.54 l 284.879,-0.34 z"
   fill="url(#LinearGradient)"
   fill-rule="nonzero"
   opacity="1"
   stroke="none"
   id="path81"
   style="fill:url(#linearGradient1582);fill-opacity:1" />
<path
   d="m 1279.51,1171.3064 -181.99,0.281 -31.15,179.286 182.04,-0.22 z m -53.33,307.327 -182.04,0.28 -31.1,179.29 181.99,-0.22 z"
   fill="#000000"
   fill-opacity="0.153519"
   fill-rule="nonzero"
   opacity="1"
   stroke="none"
   id="path83" />
<path
   id="path85"
   style="fill:url(#linearGradient873)"
   d="m 1217.0898,965.94039 -40.166,0.0547 h -3.0742 c -0.029,0 -0.057,0.004 -0.086,0.004 l -204.83987,0.27929 c -49.506,0.064 -89.54252,40.25182 -89.47852,89.75782 0.065,49.506 40.25182,89.5963 89.75781,89.5313 l 141.51758,-0.168 -93.0703,536.1308 -434.47462,0.5586 c -49.506,0.07 -89.5982,40.2498 -89.5332,89.7598 0.064,49.5 40.24986,89.6012 89.75586,89.5312 l 510.03126,-0.6699 c 0.84,0 1.6207,-0.091 2.4707,-0.1211 2.98,-0.08 5.9005,-0.2999 8.8105,-0.6699 40.44,-5.18 72.3982,-37.2702 77.4082,-77.7402 l 110.959,-638.8887 h 57.7324 c 0.45,0 0.8899,-0.074 1.3399,-0.08 0.45,0.01 0.8703,0.08 1.3203,0.08 44.3,0 80.199,35.9081 80.209,80.2031 0,44.296 -35.909,80.2051 -80.209,80.2051 -36,0 -66.9012,21.4953 -80.7812,52.3203 -1,2.2 -1.8793,4.46 -2.6993,6.75 -0.2,0.57 -0.4308,1.1407 -0.6308,1.7207 -0.48,1.44 -0.8891,2.9204 -1.2891,4.4004 -0.47,1.68 -0.921,3.3603 -1.291,5.0703 -0.11,0.5 -0.1991,1.0193 -0.2891,1.5293 -0.52,2.57 -0.9094,5.1593 -1.1894,7.7793 -1.15,10.59 -0.5003,21.5512 2.4297,32.4512 l 101.0195,376.959 c 12.67,47.29 61.2705,75.3614 108.5605,62.6914 47.29,-12.67 75.3595,-61.2803 62.6895,-108.5703 l -77.6992,-289.9512 c 87.81,-41.01 148.6699,-130.0435 148.6699,-233.3555 0,-142.212 -115.29,-257.49802 -257.5,-257.49802 h -2.6602 -133.0761 c -0.2195,-10e-4 -0.4247,-0.055 -0.6446,-0.0547 z m -480.95113,0.16797 c -49.506,0.065 -89.5982,40.25274 -89.5332,89.75974 0.065,49.506 40.24986,89.5963 89.75586,89.5313 h 2.41406 c 49.506,-0.065 89.5982,-40.2518 89.5332,-89.7578 -0.065,-49.506 -40.24986,-89.59724 -89.75586,-89.53324 z m -383.44726,717.89064 -216.95508,0.2812 c -49.506402,0.06 -89.598005,40.2498 -89.533205,89.7598 0.0647,49.5 40.252113,89.5893 89.757815,89.5293 l 216.95508,-0.2793 c 49.506,-0.07 89.59625,-40.2498 89.53125,-89.7598 -0.065,-49.5 -40.24986,-89.6012 -89.75586,-89.5312 z" />





</g>
</g>
</svg>
